  0
SECTION
  2
HEADER
  9
$ACADVER
  1
AC1009
  9
$INSBASE
 10
0.0
 20
0.0
 30
0.0
  9
$EXTMIN
 10
0.0
 20
0.0
 30
0.0
  9
$EXTMAX
 10
0.0
 20
0.0
 30
0.0
  0
ENDSEC
  0
SECTION
  2
TABLES
  0
TABLE
  2
VPORT
 70
0
  0
ENDTAB
  0
TABLE
  2
LTYPE
 70
1
  0
LTYPE
  2
CONTINUOUS
 70
0
  3
Solid line
 72
65
 73
0
 40
0.0
  0
ENDTAB
  0
TABLE
  2
LAYER
 70
1
  0
LAYER
  2
0
 70
64
 62
7
  6
continuous
  0
ENDTAB
  0
TABLE
  2
STYLE
 70
1
  0
STYLE
  2
STANDARD
 70
0
 40
0
 41
1.0
 50
0.0
 71
0
 42
1
 3
ARIAL.TTF
 4

  0
ENDTAB
  0
TABLE
  2
VIEW
 70
0
  0
ENDTAB
  0
ENDSEC
  0
SECTION
  2
BLOCKS
  0
BLOCK
  8
0
  2
PART__FEATURE
 70
0
 10
0.0
 20
0.0
 30
0.0
  3
PART__FEATURE
  0
LINE
  8
0
 62
0
 10
-2.000000000000263
 20
29.2500007748396
 30
0.0
 11
-66.5000000000211
 21
29.2500007748396
 31
0.0
  0
ARC
  8
0
 62
0
 10
-66.5000000000211
 20
27.2500007748396
 30
0.0
 40
2.0
 50
90.0
 51
-180.0
  0
LINE
  8
0
 62
0
 10
-68.5000000000209
 20
27.2500007748396
 30
0.0
 11
-68.5000000000209
 21
-20.500000000020897
 31
0.0
  0
ARC
  8
0
 62
0
 10
-66.5000000000211
 20
-20.5000000000209
 30
0.0
 40
2.0
 50
-180.0
 51
-90.0
  0
LINE
  8
0
 62
0
 10
-66.5000000000211
 20
-22.500000000020936
 30
0.0
 11
-56.2500000000211
 21
-22.5000000000209
 31
0.0
  0
ARC
  8
0
 62
0
 10
-56.250000000021
 20
-24.5000000000209
 30
0.0
 40
2.0
 50
-0.0
 51
90.0000000000002
  0
LINE
  8
0
 62
0
 10
-54.25000000002091
 20
-24.5000000000209
 30
0.0
 11
-54.25000000002088
 21
-32.250000000020904
 31
0.0
  0
ARC
  8
0
 62
0
 10
-52.2500000000209
 20
-32.2500000000209
 30
0.0
 40
2.0
 50
-180.0
 51
-90.0
  0
LINE
  8
0
 62
0
 10
-52.2500000000209
 20
-34.25000000002089
 30
0.0
 11
-48.2500000000209
 21
-34.250000000020876
 31
0.0
  0
ARC
  8
0
 62
0
 10
-48.2500000000209
 20
-32.2500000000209
 30
0.0
 40
2.0
 50
-90.0
 51
-0.0
  0
LINE
  8
0
 62
0
 10
-46.25000000002089
 20
-32.0000000000209
 30
0.0
 11
-46.25000000002089
 21
-32.2500000000209
 31
0.0
  0
ARC
  8
0
 62
0
 10
-44.2500000000209
 20
-32.0000000000209
 30
0.0
 40
2.0
 50
90.0
 51
-180.0
  0
LINE
  8
0
 62
0
 10
-32.2500000000209
 20
-30.00000000002081
 30
0.0
 11
-44.2500000000209
 21
-30.00000000002085
 31
0.0
  0
ARC
  8
0
 62
0
 10
-32.2500000000209
 20
-32.0000000000208
 30
0.0
 40
2.0
 50
-0.0
 51
90.0
  0
LINE
  8
0
 62
0
 10
-30.250000000020908
 20
-32.2500000000208
 30
0.0
 11
-30.250000000020908
 21
-32.0000000000208
 31
0.0
  0
ARC
  8
0
 62
0
 10
-28.2500000000209
 20
-32.2500000000208
 30
0.0
 40
2.0
 50
-180.0
 51
-90.0
  0
LINE
  8
0
 62
0
 10
-28.2500000000209
 20
-34.2500000000208
 30
0.0
 11
-16.250000000020897
 21
-34.250000000020755
 31
0.0
  0
ARC
  8
0
 62
0
 10
-16.2500000000209
 20
-32.2500000000208
 30
0.0
 40
2.0
 50
-90.0
 51
-0.0
  0
LINE
  8
0
 62
0
 10
-14.250000000020908
 20
-32.2500000000208
 30
0.0
 11
-14.250000000020936
 21
-24.5000000000209
 31
0.0
  0
ARC
  8
0
 62
0
 10
-12.250000000021
 20
-24.5000000000209
 30
0.0
 40
2.0
 50
89.99999999999974
 51
-180.0
  0
LINE
  8
0
 62
0
 10
-12.250000000021
 20
-22.5000000000209
 30
0.0
 11
-2.0000000000210107
 21
-22.500000000020936
 31
0.0
  0
ARC
  8
0
 62
0
 10
-2.00000000002102
 20
-20.5000000000209
 30
0.0
 40
2.0
 50
-89.99999999999987
 51
-0.0
  0
LINE
  8
0
 62
0
 10
-2.5757174171303606e-13
 20
-20.5000000000209
 30
0.0
 11
-2.57571741713036e-13
 21
27.2500007748396
 31
0.0
  0
ARC
  8
0
 62
0
 10
-2.00000000000026
 20
27.2500007748396
 30
0.0
 40
2.0
 50
-0.0
 51
89.99999999999999
  0
CIRCLE
  8
0
 62
0
 10
-19.2500000000211
 20
12.9999999999792
 30
0.0
 40
1.6
  0
CIRCLE
  8
0
 62
0
 10
-49.2500000000211
 20
23.9999999999791
 30
0.0
 40
1.6
  0
CIRCLE
  8
0
 62
0
 10
-19.2500000000211
 20
23.9999999999792
 30
0.0
 40
1.6
  0
CIRCLE
  8
0
 62
0
 10
-49.2500000000211
 20
12.9999999999791
 30
0.0
 40
1.6
  0
CIRCLE
  8
0
 62
0
 10
-24.250000000021
 20
3.7499999999792
 30
0.0
 40
1.6
  0
CIRCLE
  8
0
 62
0
 10
-4.250000000021
 20
2.74999999997909
 30
0.0
 40
1.60000000000001
  0
CIRCLE
  8
0
 62
0
 10
-64.250000000021
 20
2.74999999997904
 30
0.0
 40
1.6
  0
CIRCLE
  8
0
 62
0
 10
-44.250000000021
 20
3.74999999997913
 30
0.0
 40
1.6
  0
CIRCLE
  8
0
 62
0
 10
-7.74800291053407
 20
25.0802757860405
 30
0.0
 40
1.7
  0
CIRCLE
  8
0
 62
0
 10
-60.7499996495171
 20
25.1576600881091
 30
0.0
 40
1.7
  0
CIRCLE
  8
0
 62
0
 10
-60.7499990898526
 20
14.6576600881091
 30
0.0
 40
1.7
  0
CIRCLE
  8
0
 62
0
 10
-7.74767630784906
 20
14.5742305014498
 30
0.0
 40
1.7
  0
CIRCLE
  8
0
 62
0
 10
-64.2500000000211
 20
-5.25000000002088
 30
0.0
 40
1.60000000000001
  0
CIRCLE
  8
0
 62
0
 10
-64.2500000000211
 20
-18.2500000000209
 30
0.0
 40
1.60000000000001
  0
CIRCLE
  8
0
 62
0
 10
-4.250000000021
 20
-18.2500000000209
 30
0.0
 40
1.60000000000001
  0
CIRCLE
  8
0
 62
0
 10
-4.25000000002095
 20
-5.25000000002089
 30
0.0
 40
1.60000000000001
  0
ARC
  8
0
 62
0
 10
-34.2500000000209
 20
-22.7500000000208
 30
0.0
 40
3.0
 50
-89.99999999999987
 51
90.00000000000014
  0
LINE
  8
0
 62
0
 10
-41.2500000000209
 20
-25.75000000002083
 30
0.0
 11
-34.2500000000209
 21
-25.7500000000208
 31
0.0
  0
ARC
  8
0
 62
0
 10
-41.250000000021
 20
-22.7500000000209
 30
0.0
 40
3.0
 50
90.00000000000014
 51
-89.99999999999987
  0
LINE
  8
0
 62
0
 10
-34.250000000021
 20
-19.750000000020872
 30
0.0
 11
-41.250000000021
 21
-19.7500000000209
 31
0.0
  0
CIRCLE
  8
0
 62
0
 10
-24.250000000021
 20
-16.2500000000208
 30
0.0
 40
1.6
  0
CIRCLE
  8
0
 62
0
 10
-49.2500000000209
 20
-30.0000000000209
 30
0.0
 40
1.6
  0
CIRCLE
  8
0
 62
0
 10
-19.2500000000209
 20
-30.0000000000208
 30
0.0
 40
1.6
  0
CIRCLE
  8
0
 62
0
 10
-44.250000000021
 20
-16.2500000000209
 30
0.0
 40
1.6
  0
CIRCLE
  8
0
 62
0
 10
-47.250000000021
 20
-22.7500000000209
 30
0.0
 40
1.6
  0
ENDBLK
  0
ENDSEC
  0
SECTION
  2
ENTITIES
  0
INSERT
  2
PART__FEATURE
  8
0
 62
0
 10
0.0
 20
0.0
 30
0.0
  0
ENDSEC
  0
EOF
