  0
SECTION
  2
HEADER
  9
$ACADVER
  1
AC1009
  9
$INSBASE
 10
0.0
 20
0.0
 30
0.0
  9
$EXTMIN
 10
0.0
 20
0.0
 30
0.0
  9
$EXTMAX
 10
0.0
 20
0.0
 30
0.0
  0
ENDSEC
  0
SECTION
  2
TABLES
  0
TABLE
  2
VPORT
 70
0
  0
ENDTAB
  0
TABLE
  2
LTYPE
 70
1
  0
LTYPE
  2
CONTINUOUS
 70
0
  3
Solid line
 72
65
 73
0
 40
0.0
  0
ENDTAB
  0
TABLE
  2
LAYER
 70
1
  0
LAYER
  2
0
 70
64
 62
7
  6
continuous
  0
ENDTAB
  0
TABLE
  2
STYLE
 70
1
  0
STYLE
  2
STANDARD
 70
0
 40
0
 41
1.0
 50
0.0
 71
0
 42
1
 3
ARIAL.TTF
 4

  0
ENDTAB
  0
TABLE
  2
VIEW
 70
0
  0
ENDTAB
  0
ENDSEC
  0
SECTION
  2
BLOCKS
  0
BLOCK
  8
0
  2
PART__FEATURE
 70
0
 10
0.0
 20
0.0
 30
0.0
  3
PART__FEATURE
  0
ARC
  8
0
 62
0
 10
47.0000007450581
 20
-29.0000004768372
 30
0.0
 40
3.0
 50
-90.0
 51
0.0
  0
LINE
  8
0
 62
0
 10
34.000000461936
 20
-32.0000004768372
 30
0.0
 11
47.0000007450581
 21
-32.0000004768372
 31
0.0
  0
LINE
  8
0
 62
0
 10
50.0000007450581
 20
-29.0000004768372
 30
0.0
 11
50.0000007450581
 21
12.999993708506999
 31
0.0
  0
ARC
  8
0
 62
0
 10
47.0000007450581
 20
12.999993708507
 30
0.0
 40
3.0
 50
-0.0
 51
90.00012471198956
  0
LINE
  8
0
 62
0
 10
-5.000006110848151
 20
15.999880523488166
 30
0.0
 11
46.99999421515359
 21
15.99999370849984
 31
0.0
  0
ARC
  8
0
 62
0
 10
-4.99999958094368
 20
12.9998805234953
 30
0.0
 40
3.0
 50
90.00012471198895
 51
-180.0
  0
LINE
  8
0
 62
0
 10
-7.99999958094368
 20
-29.0000004768372
 30
0.0
 11
-7.99999958094368
 21
12.9998805234953
 31
0.0
  0
ARC
  8
0
 62
0
 10
-4.99999958094367
 20
-29.0000004768372
 30
0.0
 40
3.0
 50
-180.0
 51
-90.00000000000018
  0
LINE
  8
0
 62
0
 10
-4.999999580943681
 20
-32.0000004768372
 30
0.0
 11
8.00000016391277
 21
-32.0000004768372
 31
0.0
  0
ARC
  8
0
 62
0
 10
8.00000016391277
 20
-29.0000004768372
 30
0.0
 40
3.0
 50
-90.0
 51
-0.0
  0
LINE
  8
0
 62
0
 10
11.0000001639128
 20
-29.0000004768372
 30
0.0
 11
11.0000001639128
 21
-20.0000002980232
 31
0.0
  0
LINE
  8
0
 62
0
 10
11.000000163912752
 20
-20.000000298023192
 30
0.0
 11
12.041079533327363
 21
-9.141079705773327
 31
0.0
  0
ARC
  8
0
 62
0
 10
21.0
 20
-9.99999999999999
 30
0.0
 40
9.0
 50
5.476394365209698
 51
174.523608906929
  0
LINE
  8
0
 62
0
 10
29.958920417619982
 20
-9.141079194133031
 30
0.0
 11
31.000000461935954
 21
-20.000000298023203
 31
0.0
  0
LINE
  8
0
 62
0
 10
31.000000461936
 20
-29.0000004768372
 30
0.0
 11
31.000000461936
 21
-20.0000002980232
 31
0.0
  0
ARC
  8
0
 62
0
 10
34.000000461936
 20
-29.0000004768372
 30
0.0
 40
3.0
 50
-180.0
 51
-90.0
  0
CIRCLE
  8
0
 62
0
 10
21.0129589673561
 20
9.19185755441143
 30
0.0
 40
1.6
  0
CIRCLE
  8
0
 62
0
 10
5.9999996628843
 20
-5.00000019086919
 30
0.0
 40
1.6
  0
CIRCLE
  8
0
 62
0
 10
-3.49999958094368
 20
-15.8333335242025
 30
0.0
 40
1.6
  0
CIRCLE
  8
0
 62
0
 10
-3.49999958094368
 20
-27.5000001908692
 30
0.0
 40
1.6
  0
CIRCLE
  8
0
 62
0
 10
33.5
 20
9.17933717613389
 30
0.0
 40
2.1
  0
CIRCLE
  8
0
 62
0
 10
35.9999996628843
 20
-27.5000001908692
 30
0.0
 40
1.6
  0
CIRCLE
  8
0
 62
0
 10
5.9999996628843
 20
-27.5000001908692
 30
0.0
 40
1.6
  0
CIRCLE
  8
0
 62
0
 10
35.9999996628843
 20
-5.00000019086919
 30
0.0
 40
1.6
  0
CIRCLE
  8
0
 62
0
 10
-3.49999958094368
 20
7.4999998091308
 30
0.0
 40
1.6
  0
CIRCLE
  8
0
 62
0
 10
-3.49999958094368
 20
-4.16666685753586
 30
0.0
 40
1.6
  0
CIRCLE
  8
0
 62
0
 10
45.4999995809437
 20
-27.5000001908692
 30
0.0
 40
1.6
  0
CIRCLE
  8
0
 62
0
 10
8.5
 20
9.20295290657762
 30
0.0
 40
2.1
  0
CIRCLE
  8
0
 62
0
 10
45.4999995809437
 20
-4.16666685753586
 30
0.0
 40
1.6
  0
CIRCLE
  8
0
 62
0
 10
45.4999995809437
 20
-15.8333335242025
 30
0.0
 40
1.6
  0
CIRCLE
  8
0
 62
0
 10
45.4999995809437
 20
7.4999998091308
 30
0.0
 40
1.6
  0
ENDBLK
  0
ENDSEC
  0
SECTION
  2
ENTITIES
  0
INSERT
  2
PART__FEATURE
  8
0
 62
0
 10
0.0
 20
0.0
 30
0.0
  0
ENDSEC
  0
EOF
